<svg width="14" height="22" viewBox="0 0 14 22" fill="none" xmlns="http://www.w3.org/2000/svg">
<path d="M7 0.816895C5.14348 0.816895 3.36301 1.59706 2.05025 2.98578C0.737498 4.37449 0 6.25799 0 8.22192C0 13.7757 7 21.9741 7 21.9741C7 21.9741 14 13.7757 14 8.22192C14 6.25799 13.2625 4.37449 11.9497 2.98578C10.637 1.59706 8.85652 0.816895 7 0.816895ZM7 10.8666C6.50555 10.8666 6.0222 10.7115 5.61107 10.4209C5.19995 10.1303 4.87952 9.71724 4.6903 9.23399C4.50108 8.75074 4.45157 8.21899 4.54804 7.70598C4.6445 7.19297 4.8826 6.72173 5.23223 6.35187C5.58186 5.98201 6.02732 5.73013 6.51227 5.62809C6.99723 5.52604 7.49989 5.57841 7.95671 5.77858C8.41352 5.97875 8.80397 6.31772 9.07867 6.75263C9.35338 7.18754 9.5 7.69886 9.5 8.22192C9.5 8.92333 9.23661 9.59601 8.76777 10.092C8.29893 10.5879 7.66304 10.8666 7 10.8666Z" fill="#96AAB8"/>
</svg>
