<svg width="18" height="20" viewBox="0 0 18 20" fill="none" xmlns="http://www.w3.org/2000/svg">
<path d="M16 0.874512H2C1.47005 0.876186 0.962265 1.09964 0.587535 1.49606C0.212805 1.89248 0.00158273 2.42966 0 2.99029L0 17.8007C0.00158273 18.3614 0.212805 18.8985 0.587535 19.295C0.962265 19.6914 1.47005 19.9148 2 19.9165H16C16.53 19.9151 17.038 19.6917 17.4128 19.2953C17.7875 18.8988 17.9987 18.3614 18 17.8007V2.99029C17.9987 2.42958 17.7875 1.89223 17.4128 1.49575C17.038 1.09927 16.53 0.875908 16 0.874512V0.874512ZM6 15.685H4V8.27973H6V15.685ZM10 15.685H8V5.10607H10V15.685ZM14 15.685H12V11.4534H14V15.685Z" fill="#96AAB8"/>
</svg>
