<svg width="18" height="19" viewBox="0 0 18 19" fill="none" xmlns="http://www.w3.org/2000/svg">
<path d="M13.15 12.2432H12.382L12.111 11.966C13.1797 10.651 13.7252 8.94913 13.633 7.21768C13.5408 5.48623 12.8181 3.85991 11.6166 2.68018C10.4151 1.50046 8.82828 0.859097 7.18929 0.890768C5.55031 0.922439 3.98667 1.62468 2.82669 2.85003C1.66671 4.07539 1.00062 5.72855 0.968276 7.46241C0.935931 9.19626 1.53985 10.8759 2.65322 12.1488C3.7666 13.4216 5.30283 14.1885 6.93935 14.2886C8.57588 14.3887 10.1854 13.814 11.43 12.6854L11.692 12.9731V13.7856L16.551 18.9165L18 17.3846L13.15 12.2432ZM7.31797 12.2432C6.45287 12.2432 5.6072 11.9718 4.8879 11.4633C4.1686 10.9549 3.60798 10.2322 3.27692 9.38666C2.94586 8.54113 2.85924 7.61073 3.02801 6.71312C3.19678 5.8155 3.61337 4.99099 4.22508 4.34385C4.8368 3.69671 5.61617 3.256 6.46464 3.07745C7.31312 2.89891 8.19258 2.99054 8.99183 3.34078C9.79107 3.69101 10.4742 4.2841 10.9548 5.04506C11.4354 5.80602 11.692 6.70066 11.692 7.61586C11.6928 8.22376 11.5802 8.82586 11.3606 9.38765C11.1411 9.94944 10.8189 10.4599 10.4126 10.8897C10.0063 11.3196 9.52379 11.6604 8.99276 11.8926C8.46172 12.1249 7.89259 12.244 7.31797 12.2432Z" fill="#96AAB8"/>
</svg>
