<svg width="18" height="18" viewBox="0 0 18 18" fill="none" xmlns="http://www.w3.org/2000/svg">
<path d="M0 2V16C0 16.5304 0.210714 17.0391 0.585786 17.4142C0.960859 17.7893 1.46957 18 2 18H16C16.53 17.9987 17.038 17.7875 17.4128 17.4128C17.7875 17.038 17.9987 16.53 18 16V2C17.9987 1.46997 17.7875 0.962032 17.4128 0.587245C17.038 0.212458 16.53 0.00132012 16 0L2 0C1.46957 0 0.960859 0.210714 0.585786 0.585786C0.210714 0.960859 0 1.46957 0 2H0ZM12 6C12 6.59334 11.8241 7.17336 11.4944 7.66671C11.1648 8.16006 10.6962 8.54458 10.1481 8.77164C9.59987 8.9987 8.99667 9.05811 8.41473 8.94236C7.83279 8.8266 7.29824 8.54088 6.87868 8.12132C6.45912 7.70176 6.1734 7.16721 6.05764 6.58527C5.94189 6.00333 6.0013 5.40013 6.22836 4.85195C6.45542 4.30377 6.83994 3.83524 7.33329 3.50559C7.82664 3.17595 8.40666 3 9 3C9.79565 3 10.5587 3.31607 11.1213 3.87868C11.6839 4.44129 12 5.20435 12 6ZM3 14C3 12 7 10.9 9 10.9C11 10.9 15 12 15 14V15H3V14Z" fill="white"/>
</svg>
