<svg width="11" height="16" viewBox="0 0 11 16" fill="none" xmlns="http://www.w3.org/2000/svg">
<path d="M5.5 0.999999C4.79413 0.983524 4.09193 1.10626 3.43349 1.36119C2.77506 1.61612 2.17329 1.99826 1.66256 2.48578C1.15183 2.97329 0.742128 3.55665 0.456863 4.20252C0.171599 4.84839 0.0163561 5.54413 0 6.25C0 10.187 5.5 16 5.5 16C5.5 16 11 10.187 11 6.25C10.9836 5.54413 10.8284 4.84839 10.5431 4.20252C10.2579 3.55665 9.84818 2.97329 9.33744 2.48578C8.82671 1.99826 8.22494 1.61612 7.56651 1.36119C6.90807 1.10626 6.20587 0.983524 5.5 0.999999ZM5.5 8.125C4.99107 8.13627 4.49845 7.94518 4.13024 7.59366C3.76204 7.24214 3.54832 6.75891 3.536 6.25C3.54832 5.74109 3.76204 5.25785 4.13024 4.90633C4.49845 4.55482 4.99107 4.36373 5.5 4.375C6.00893 4.36373 6.50155 4.55482 6.86976 4.90633C7.23796 5.25785 7.45168 5.74109 7.464 6.25C7.45168 6.75891 7.23796 7.24214 6.86976 7.59366C6.50155 7.94518 6.00893 8.13627 5.5 8.125Z" fill="#112B36"/>
</svg>
