<svg width="20" height="16" viewBox="0 0 20 16" fill="none" xmlns="http://www.w3.org/2000/svg">
<path d="M18 0H2C1.4713 0.00264352 0.965159 0.214524 0.592246 0.58931C0.219334 0.964097 0.00999339 1.4713 0.01 2L0 14C0.00158273 14.5299 0.212805 15.0377 0.587535 15.4125C0.962265 15.7872 1.47005 15.9984 2 16H18C18.53 15.9987 19.038 15.7875 19.4128 15.4128C19.7875 15.038 19.9987 14.53 20 14V2C19.9987 1.46997 19.7875 0.962032 19.4128 0.587245C19.038 0.212458 18.53 0.00132012 18 0V0ZM18 4L10 9L2 4V2L10 7L18 2V4Z" fill="white"/>
</svg>
