<svg width="21" height="19" viewBox="0 0 21 19" fill="none" xmlns="http://www.w3.org/2000/svg">
<path d="M1.24213 16.9L2.58913 17.46V8.43003L0.146133 14.29C-0.0509926 14.7818 -0.0465064 15.3314 0.15862 15.8199C0.363747 16.3084 0.753007 16.6964 1.24213 16.9ZM20.8491 13.2L15.8621 1.23003C15.6568 0.74152 15.2668 0.353924 14.777 0.151643C14.2872 -0.0506372 13.7373 -0.0512184 13.2471 0.150026L5.83713 3.20003C5.47864 3.34784 5.17086 3.59669 4.95123 3.91626C4.73161 4.23584 4.60963 4.61237 4.60013 5.00003C4.59067 5.27458 4.64224 5.54781 4.75113 5.80003L9.73813 17.769C9.89043 18.132 10.146 18.4421 10.4732 18.661C10.8003 18.8799 11.1845 18.9978 11.5781 19C11.8433 18.9996 12.106 18.9487 12.3521 18.85L19.7521 15.8C19.9953 15.7018 20.2166 15.5566 20.4034 15.3726C20.5902 15.1886 20.7389 14.9695 20.8408 14.7279C20.9427 14.4864 20.9959 14.227 20.9974 13.9648C20.9988 13.7026 20.9484 13.4427 20.8491 13.2ZM6.62113 6.00003C6.42361 5.99884 6.23087 5.93919 6.06721 5.82859C5.90355 5.71799 5.77631 5.5614 5.70154 5.37857C5.62677 5.19574 5.60782 4.99487 5.64708 4.80128C5.68634 4.6077 5.78206 4.43008 5.92214 4.29083C6.06223 4.15157 6.24042 4.05693 6.43424 4.01882C6.62805 3.98072 6.82881 4.00087 7.01119 4.07673C7.19357 4.1526 7.34939 4.28077 7.45901 4.44508C7.56863 4.6094 7.62713 4.8025 7.62713 5.00003C7.62555 5.26579 7.51886 5.52013 7.33037 5.7075C7.14188 5.89487 6.8869 6.00003 6.62113 6.00003ZM4.61013 17C4.61304 17.5315 4.82619 18.0402 5.20302 18.4149C5.57984 18.7897 6.08968 19 6.62113 19H8.07913L4.61013 10.66V17Z" fill="#96AAB8"/>
</svg>
