<svg width="21" height="19" viewBox="0 0 21 19" fill="none" xmlns="http://www.w3.org/2000/svg">
<path d="M1.24189 16.9L2.58889 17.46V8.43003L0.145889 14.29C-0.0512367 14.7818 -0.0467505 15.3314 0.158376 15.8199C0.363502 16.3084 0.752763 16.6964 1.24189 16.9ZM20.8489 13.2L15.8619 1.23003C15.6566 0.74152 15.2665 0.353924 14.7767 0.151643C14.287 -0.0506372 13.7371 -0.0512184 13.2469 0.150026L5.83689 3.20003C5.4784 3.34784 5.17061 3.59669 4.95099 3.91626C4.73137 4.23584 4.60939 4.61237 4.59989 5.00003C4.59043 5.27458 4.642 5.54781 4.75089 5.80003L9.73789 17.769C9.89018 18.132 10.1458 18.4421 10.4729 18.661C10.8001 18.8799 11.1843 18.9978 11.5779 19C11.8431 18.9996 12.1057 18.9487 12.3519 18.85L19.7519 15.8C19.995 15.7018 20.2163 15.5566 20.4032 15.3726C20.59 15.1886 20.7386 14.9695 20.8406 14.7279C20.9425 14.4864 20.9957 14.227 20.9971 13.9648C20.9986 13.7026 20.9482 13.4427 20.8489 13.2ZM6.62089 6.00003C6.42337 5.99884 6.23062 5.93919 6.06696 5.82859C5.9033 5.71799 5.77607 5.5614 5.7013 5.37857C5.62653 5.19574 5.60758 4.99487 5.64684 4.80128C5.6861 4.6077 5.78181 4.43008 5.9219 4.29083C6.06199 4.15157 6.24018 4.05693 6.43399 4.01882C6.62781 3.98072 6.82857 4.00087 7.01094 4.07673C7.19332 4.1526 7.34915 4.28077 7.45877 4.44508C7.56838 4.6094 7.62688 4.8025 7.62689 5.00003C7.6253 5.26579 7.51861 5.52013 7.33012 5.7075C7.14163 5.89487 6.88666 6.00003 6.62089 6.00003ZM4.60989 17C4.6128 17.5315 4.82595 18.0402 5.20277 18.4149C5.57959 18.7897 6.08944 19 6.62089 19H8.07889L4.60989 10.66V17Z" fill="#96AAB8"/>
</svg>
