<svg width="66" height="71" viewBox="0 0 66 71" fill="none" xmlns="http://www.w3.org/2000/svg">
<path d="M1.34915 13.7458L1.33115 14.3178L1.11015 21.3908L0.871153 29.0448C0.860554 29.3961 0.942317 29.744 1.10827 30.0537C1.27423 30.3635 1.51856 30.6242 1.81686 30.81C2.11516 30.9957 2.45699 31.0999 2.80818 31.1122C3.15937 31.1244 3.50762 31.0443 3.81815 30.8798L11.7892 26.6548L17.1322 23.8238L17.3452 23.7108C17.5567 23.5978 17.7308 23.4258 17.8463 23.2156C17.9619 23.0055 18.014 22.7663 17.9962 22.5272C17.9784 22.288 17.8915 22.0592 17.7461 21.8684C17.6007 21.6777 17.4031 21.5333 17.1772 21.4528L13.9672 20.7128C19.1672 12.6568 26.6852 8.52284 36.2672 8.02884C41.373 7.74874 46.45 8.96032 50.8792 11.5158C53.4873 12.8969 55.7885 14.7925 57.6435 17.0879C59.4986 19.3833 60.8691 22.0309 61.6722 24.8708C61.7943 25.3905 62.0127 25.8827 62.3162 26.3218C62.5554 26.5789 62.8764 26.7448 63.2244 26.7913C63.5725 26.8378 63.9258 26.762 64.2242 26.5768C64.5455 26.3865 64.7926 26.0926 64.925 25.7434C65.0575 25.3942 65.0674 25.0104 64.9531 24.6548C64.3983 22.2129 63.5593 19.8445 62.4532 17.5978C60.5594 13.7841 57.8951 10.4046 54.6287 7.673C51.3623 4.94139 47.5648 2.91702 43.4762 1.72784C36.0441 -0.614873 28.0187 -0.217897 20.8542 2.84684C15.3313 5.087 10.5334 8.80708 6.98815 13.5978C6.51115 14.2358 6.06615 14.8978 5.61715 15.5678L3.44615 12.8978C3.35929 12.8128 3.26061 12.7407 3.15315 12.6838C2.87578 12.5428 2.55569 12.5106 2.25576 12.5935C1.95584 12.6763 1.69773 12.8684 1.53215 13.1318C1.41714 13.3164 1.35392 13.5285 1.34915 13.7458Z" fill="#96AAB8"/>
<path d="M63.6872 56.687L63.7062 56.115L63.9242 49.042L64.1632 41.389C64.1741 41.0379 64.0926 40.69 63.9269 40.3802C63.7612 40.0704 63.5171 39.8096 63.219 39.6237C62.9208 39.4378 62.5791 39.3335 62.228 39.3211C61.8769 39.3087 61.5287 39.3887 61.2182 39.553L53.2462 43.777L47.9062 46.607L47.6922 46.722C47.4809 46.8348 47.3068 47.0065 47.1912 47.2163C47.0755 47.4261 47.0232 47.6649 47.0405 47.9038C47.0579 48.1427 47.1442 48.3715 47.289 48.5623C47.4338 48.7532 47.6308 48.8979 47.8562 48.979L51.0702 49.717C45.8702 57.776 38.3522 61.907 28.7702 62.405C23.6635 62.6844 18.5859 61.4722 14.1562 58.916C11.548 57.5352 9.247 55.6397 7.39224 53.3442C5.53748 51.0488 4.16752 48.401 3.3652 45.561C3.24035 45.0436 3.021 44.5537 2.7182 44.116C2.47934 43.8579 2.15799 43.691 1.80941 43.6441C1.46084 43.5972 1.10681 43.6732 0.808202 43.859C0.486755 44.0492 0.239514 44.3431 0.10705 44.6923C-0.0254141 45.0416 -0.0352337 45.4255 0.0792024 45.781C0.632139 48.2228 1.47127 50.5909 2.5792 52.836C4.47332 56.6496 7.13799 60.0287 10.4048 62.7598C13.6715 65.4909 17.4694 67.5146 21.5582 68.703C28.9906 71.0474 37.0169 70.6511 44.1822 67.586C49.7053 65.3453 54.5032 61.6245 58.0482 56.833C58.5222 56.194 58.9682 55.533 59.4182 54.863L61.5892 57.532C61.6758 57.6178 61.7741 57.6909 61.8812 57.749C62.1591 57.8894 62.4794 57.9212 62.7795 57.8381C63.0796 57.7551 63.3379 57.5633 63.5042 57.3C63.619 57.1158 63.6823 56.9041 63.6872 56.687Z" fill="#96AAB8"/>
<path d="M42.1732 46.3297C41.8972 45.0217 41.4152 44.7297 40.1432 45.0997C38.0202 45.7943 35.7507 45.912 33.5672 45.4407C32.1738 45.1527 30.9031 44.4421 29.928 43.4059C28.953 42.3696 28.321 41.0581 28.1182 39.6497H28.9432C32.2765 39.6497 35.6132 39.6497 38.9532 39.6497C40.1382 39.6497 40.5002 39.2497 40.5012 37.9557C40.5012 36.5887 40.1652 36.2047 38.9382 36.2047C35.4015 36.1994 31.8632 36.1994 28.3232 36.2047H27.3422C27.3422 35.8097 27.3562 35.4597 27.3532 35.1197C27.3502 34.7797 27.3422 34.4307 27.3422 34.0347H28.3232C31.8632 34.0347 35.4015 34.0347 38.9382 34.0347C40.1652 34.0347 40.5032 33.6507 40.5012 32.2857C40.5012 30.9937 40.1382 30.5927 38.9532 30.5917C35.6132 30.5877 32.2765 30.5877 28.9432 30.5917H28.1182C28.3208 29.1839 28.9522 27.8726 29.9265 26.8363C30.9007 25.8 32.1705 25.0889 33.5632 24.7997C35.7467 24.3293 38.016 24.4469 40.1392 25.1407C41.4112 25.5107 41.8932 25.2187 42.1692 23.9127C42.3452 23.0727 42.5292 22.2377 42.7182 21.4007C42.8193 21.1088 42.8027 20.7889 42.6721 20.5089C42.5414 20.2289 42.3069 20.0108 42.0182 19.9007C35.1452 16.9007 25.8632 18.5147 21.8592 26.1837C21.3014 27.3942 20.8565 28.6535 20.5302 29.9457C20.3882 30.3977 20.2612 30.6787 19.7392 30.5977C19.5631 30.5852 19.3863 30.5852 19.2102 30.5977C17.3602 30.6037 16.8042 31.2807 17.1962 33.0897C17.2427 33.3689 17.3912 33.6209 17.6129 33.7968C17.8346 33.9727 18.1138 34.06 18.3962 34.0417C18.8672 34.0537 19.3412 34.0417 19.8642 34.0417V36.2157C19.3412 36.2157 18.8642 36.2037 18.3962 36.2157C18.1141 36.1991 17.8358 36.287 17.6144 36.4626C17.393 36.6382 17.2441 36.8893 17.1962 37.1677C16.8032 38.9787 17.3592 39.6537 19.2102 39.6617C19.3863 39.6743 19.5631 39.6743 19.7392 39.6617C20.2612 39.5797 20.3882 39.8617 20.5302 40.3157C20.8565 41.607 21.3014 42.8653 21.8592 44.0747C25.8592 51.7457 35.1452 53.3597 42.0182 50.3567C42.3072 50.2471 42.5421 50.029 42.6728 49.7489C42.8035 49.4688 42.8198 49.1487 42.7182 48.8567C42.5342 48.0027 42.3492 47.1667 42.1732 46.3297Z" fill="#112B36"/>
</svg>
