<svg width="16" height="24" viewBox="0 0 16 24" fill="none" xmlns="http://www.w3.org/2000/svg">
<path d="M8 17.7856C8.39556 17.7856 8.78224 17.6562 9.11114 17.4139C9.44004 17.1715 9.69638 16.8269 9.84776 16.4239C9.99913 16.0208 10.0387 15.5772 9.96157 15.1493C9.8844 14.7214 9.69392 14.3284 9.41421 14.0199C9.13451 13.7114 8.77814 13.5013 8.39018 13.4162C8.00222 13.331 7.60009 13.3747 7.23463 13.5417C6.86918 13.7086 6.55682 13.9914 6.33706 14.3542C6.1173 14.7169 6 15.1434 6 15.5797C6.00132 16.1643 6.21246 16.7245 6.58724 17.1379C6.96203 17.5513 7.46997 17.7842 8 17.7856ZM14 7.85896H13V5.65304C13 4.19042 12.4732 2.78771 11.5355 1.75348C10.5979 0.719252 9.32608 0.138229 8 0.138229C6.67392 0.138229 5.40215 0.719252 4.46447 1.75348C3.52678 2.78771 3 4.19042 3 5.65304V7.85896H2C1.47005 7.86071 0.962265 8.09368 0.587535 8.50699C0.212805 8.9203 0.00158273 9.48038 0 10.0649L0 21.0945C0.00158273 21.679 0.212805 22.2391 0.587535 22.6524C0.962265 23.0657 1.47005 23.2987 2 23.3004H14C14.53 23.299 15.038 23.0661 15.4128 22.6527C15.7875 22.2393 15.9987 21.6791 16 21.0945V10.0649C15.9987 9.48029 15.7875 8.92005 15.4128 8.50667C15.038 8.0933 14.53 7.86042 14 7.85896ZM4.9 5.65304C4.9 4.74622 5.22661 3.87653 5.80797 3.23531C6.38933 2.59409 7.17783 2.23386 8 2.23386C8.82217 2.23386 9.61067 2.59409 10.192 3.23531C10.7734 3.87653 11.1 4.74622 11.1 5.65304V7.85896H4.9V5.65304ZM14 21.0945H2V10.0649H14V21.0945Z" fill="#96AAB8"/>
</svg>
