<svg width="14" height="14" viewBox="0 0 14 14" fill="none" xmlns="http://www.w3.org/2000/svg">
<path d="M12.444 12.444H1.556V1.556H7V3.2178e-07H1.556C1.35163 -0.000131151 1.14923 0.0400262 0.960389 0.118176C0.771547 0.196326 0.599963 0.310935 0.455449 0.455449C0.310935 0.599963 0.196326 0.771547 0.118176 0.960389C0.0400262 1.14923 -0.000131151 1.35163 3.2178e-07 1.556V12.444C-0.000131151 12.6484 0.0400262 12.8508 0.118176 13.0396C0.196326 13.2285 0.310935 13.4 0.455449 13.5446C0.599963 13.6891 0.771547 13.8037 0.960389 13.8818C1.14923 13.96 1.35163 14.0001 1.556 14H12.444C12.8564 13.9989 13.2515 13.8347 13.5431 13.5431C13.8347 13.2515 13.9989 12.8564 14 12.444V7H12.444V12.444ZM8.556 3.2178e-07V1.556H11.348L3.7 9.2L4.8 10.3L12.445 2.655V5.444H14V3.2178e-07H8.556Z" fill="white"/>
</svg>
