<svg width="166" height="57" viewBox="0 0 166 57" fill="none" xmlns="http://www.w3.org/2000/svg">
<path d="M12.0964 44.7812H48.3857V14.431H12.0964V44.7812ZM30.5357 17.4519L43.619 28.621H40.3226V42.0221H32.6607V32.5625H27.8214V42.0221H20.5643V28.621H17.1833L30.5357 17.4519ZM8.06429 6.94259V0H0V57H8.06429V10.4907H50V6.94259H8.06429Z" fill="#112B36"/>
<path d="M68.16 44H72.4L74.76 32.2H77.24L78.52 44H82.76L81.24 31.44C83.56 30.4 84.92 28.88 85.92 23.92C86.16 22.68 86.28 21.6 86.28 20.68C86.28 17.6 84.64 15.52 80.52 15.52H73.84L68.16 44ZM75.48 28.52L77.32 19.32H79.72C81.44 19.32 81.96 20.2 81.96 21.64C81.96 22.28 81.84 23.08 81.68 23.92C81.12 26.8 80.12 28.52 78.04 28.52H75.48ZM86.2459 44H97.6059L98.3659 40.2H91.2459L92.9659 31.52H99.0859L99.8459 27.76H93.7259L95.4059 19.32H102.526L103.286 15.52H91.9259L86.2459 44ZM116.526 44L115.646 15.52H111.486L99.2059 44H103.726L106.046 38.24H112.326L112.286 44H116.526ZM112.286 34.44H107.566L112.366 22.04L112.286 34.44ZM118.98 44H130.34L131.1 40.2H123.98L128.9 15.52H124.66L118.98 44ZM134.56 44H138.8L143.72 19.32H148.24L149 15.52H135.72L134.96 19.32H139.48L134.56 44ZM150.691 44H154.931L157.091 33.04L165.651 15.52H161.011L156.131 27.04L155.691 15.52H151.291L152.931 32.64L150.691 44Z" fill="#A30023"/>
</svg>
